HIERARCHY
ROOT Root
{
  OFFSET 0.0 0.0 0.0
  CHANNELS 6 Xposition Yposition Zposition Zrotation Yrotation Xrotation
  JOINT Hips
  {
    OFFSET 0.0 100.0 0.0
    CHANNELS 6 Xposition Yposition Zposition Zrotation Yrotation Xrotation
    JOINT Spine1
    {
      OFFSET -0.013727 5.003763 -0.053727
      CHANNELS 3 Zrotation Yrotation Xrotation
      JOINT Spine2
      {
        OFFSET -0.0 7.125301 -0.029825
        CHANNELS 3 Zrotation Yrotation Xrotation
        JOINT Chest
        {
          OFFSET -1e-06 7.550063 -0.815971
          CHANNELS 3 Zrotation Yrotation Xrotation
          JOINT Neck1
          {
            OFFSET -0.181677 26.311295 -0.553348
            CHANNELS 3 Zrotation Yrotation Xrotation
            JOINT Neck2
            {
              OFFSET -3e-06 7.709397 2.302585
              CHANNELS 3 Zrotation Yrotation Xrotation
              JOINT Head
              {
                OFFSET -5e-06 6.128916 1.953709
                CHANNELS 3 Zrotation Yrotation Xrotation
                JOINT HeadEnd
                {
                  OFFSET 0.003598 16.065403 -1.835379
                  CHANNELS 3 Zrotation Yrotation Xrotation
                }
                JOINT Jaw
                {
                  OFFSET 0.002637 0.475592 3.094941
                  CHANNELS 3 Zrotation Yrotation Xrotation
                }
                JOINT LeftEye
                {
                  OFFSET 3.206381 5.380205 7.586883
                  CHANNELS 3 Zrotation Yrotation Xrotation
                }
                JOINT RightEye
                {
                  OFFSET -3.22244 5.361869 7.558234
                  CHANNELS 3 Zrotation Yrotation Xrotation
                }
              }
            }
          }
          JOINT LeftShoulder
          {
            OFFSET 1.621652 23.237164 5.113413
            CHANNELS 3 Zrotation Yrotation Xrotation
            JOINT LeftArm
            {
              OFFSET 14.919846 2e-06 -5.502326
              CHANNELS 3 Zrotation Yrotation Xrotation
              JOINT LeftForeArm
              {
                OFFSET 28.739307 0.0 -0.002588
                CHANNELS 3 Zrotation Yrotation Xrotation
                JOINT LeftHand
                {
                  OFFSET 27.093981 -1e-06 0.002609
                  CHANNELS 3 Zrotation Yrotation Xrotation
                  JOINT LeftHandThumb1
                  {
                    OFFSET 2.276482 -1.392045 3.191413
                    CHANNELS 3 Zrotation Yrotation Xrotation
                    JOINT LeftHandThumb2
                    {
                      OFFSET 4.012836 -1.828127 1.641654
                      CHANNELS 3 Zrotation Yrotation Xrotation
                      JOINT LeftHandThumb3
                      {
                        OFFSET 2.798515 0.0 -3e-06
                        CHANNELS 3 Zrotation Yrotation Xrotation
                        JOINT LeftHandThumbEnd
                        {
                          OFFSET 3.180793 -4e-06 4e-06
                          CHANNELS 3 Zrotation Yrotation Xrotation
                        }
                      }
                    }
                  }
                  JOINT LeftHandIndex1
                  {
                    OFFSET 3.247555 -0.531998 2.296169
                    CHANNELS 3 Zrotation Yrotation Xrotation
                    JOINT LeftHandIndex2
                    {
                      OFFSET 6.364578 0.01206 0.1786
                      CHANNELS 3 Zrotation Yrotation Xrotation
                      JOINT LeftHandIndex3
                      {
                        OFFSET 3.662364 0.0 0.0
                        CHANNELS 3 Zrotation Yrotation Xrotation
                        JOINT LeftHandIndex4
                        {
                          OFFSET 2.329242 4e-06 4e-06
                          CHANNELS 3 Zrotation Yrotation Xrotation
                          JOINT LeftHandIndexEnd
                          {
                            OFFSET 2.759615 -0.180537 -0.113024
                            CHANNELS 3 Zrotation Yrotation Xrotation
                          }
                        }
                      }
                    }
                  }
                  JOINT LeftHandMiddle1
                  {
                    OFFSET 3.163495 0.240981 1.000332
                    CHANNELS 3 Zrotation Yrotation Xrotation
                    JOINT LeftHandMiddle2
                    {
                      OFFSET 6.19078 -0.259278 -1.002548
                      CHANNELS 3 Zrotation Yrotation Xrotation
                      JOINT LeftHandMiddle3
                      {
                        OFFSET 4.35652 -4e-06 -1e-06
                        CHANNELS 3 Zrotation Yrotation Xrotation
                        JOINT LeftHandMiddle4
                        {
                          OFFSET 2.996877 -8e-06 0.0
                          CHANNELS 3 Zrotation Yrotation Xrotation
                          JOINT LeftHandMiddleEnd
                          {
                            OFFSET 2.304287 -0.294569 -0.031741
                            CHANNELS 3 Zrotation Yrotation Xrotation
                          }
                        }
                      }
                    }
                  }
                  JOINT LeftHandRing1
                  {
                    OFFSET 2.882643 -0.053652 -0.322543
                    CHANNELS 3 Zrotation Yrotation Xrotation
                    JOINT LeftHandRing2
                    {
                      OFFSET 5.854541 -0.486202 -1.373841
                      CHANNELS 3 Zrotation Yrotation Xrotation
                      JOINT LeftHandRing3
                      {
                        OFFSET 4.350578 0.0 3e-06
                        CHANNELS 3 Zrotation Yrotation Xrotation
                        JOINT LeftHandRing4
                        {
                          OFFSET 2.651321 7e-06 2e-06
                          CHANNELS 3 Zrotation Yrotation Xrotation
                          JOINT LeftHandRingEnd
                          {
                            OFFSET 1.936105 0.077687 -7.1e-05
                            CHANNELS 3 Zrotation Yrotation Xrotation
                          }
                        }
                      }
                    }
                  }
                  JOINT LeftHandPinky1
                  {
                    OFFSET 2.8655 -0.310005 -1.600378
                    CHANNELS 3 Zrotation Yrotation Xrotation
                    JOINT LeftHandPinky2
                    {
                      OFFSET 5.087849 -1.331141 -1.77123
                      CHANNELS 3 Zrotation Yrotation Xrotation
                      JOINT LeftHandPinky3
                      {
                        OFFSET 3.070974 4e-06 0.0
                        CHANNELS 3 Zrotation Yrotation Xrotation
                        JOINT LeftHandPinky4
                        {
                          OFFSET 1.549672 0.0 1e-06
                          CHANNELS 3 Zrotation Yrotation Xrotation
                          JOINT LeftHandPinkyEnd
                          {
                            OFFSET 1.944893 -0.157802 0.057219
                            CHANNELS 3 Zrotation Yrotation Xrotation
                          }
                        }
                      }
                    }
                  }
                }
              }
            }
          }
          JOINT RightShoulder
          {
            OFFSET -1.380118 23.180309 5.214158
            CHANNELS 3 Zrotation Yrotation Xrotation
            JOINT RightArm
            {
              OFFSET -15.037196 1.2e-05 -5.545604
              CHANNELS 3 Zrotation Yrotation Xrotation
              JOINT RightForeArm
              {
                OFFSET -28.736639 2e-06 -0.002597
                CHANNELS 3 Zrotation Yrotation Xrotation
                JOINT RightHand
                {
                  OFFSET -27.133619 -0.0 0.002613
                  CHANNELS 3 Zrotation Yrotation Xrotation
                  JOINT RightHandThumb1
                  {
                    OFFSET -2.274032 -1.383988 3.163127
                    CHANNELS 3 Zrotation Yrotation Xrotation
                    JOINT RightHandThumb2
                    {
                      OFFSET -4.011429 -1.827466 1.640914
                      CHANNELS 3 Zrotation Yrotation Xrotation
                      JOINT RightHandThumb3
                      {
                        OFFSET -2.794935 -4e-06 -3e-06
                        CHANNELS 3 Zrotation Yrotation Xrotation
                        JOINT RightHandThumbEnd
                        {
                          OFFSET -3.183852 4e-06 1e-06
                          CHANNELS 3 Zrotation Yrotation Xrotation
                        }
                      }
                    }
                  }
                  JOINT RightHandIndex1
                  {
                    OFFSET -3.253266 -0.520057 2.282866
                    CHANNELS 3 Zrotation Yrotation Xrotation
                    JOINT RightHandIndex2
                    {
                      OFFSET -6.341917 0.012471 0.178266
                      CHANNELS 3 Zrotation Yrotation Xrotation
                      JOINT RightHandIndex3
                      {
                        OFFSET -3.654871 -8e-06 -0.0
                        CHANNELS 3 Zrotation Yrotation Xrotation
                        JOINT RightHandIndex4
                        {
                          OFFSET -2.327586 0.0 1e-06
                          CHANNELS 3 Zrotation Yrotation Xrotation
                          JOINT RightHandIndexEnd
                          {
                            OFFSET -2.76179 -0.180656 -0.113078
                            CHANNELS 3 Zrotation Yrotation Xrotation
                          }
                        }
                      }
                    }
                  }
                  JOINT RightHandMiddle1
                  {
                    OFFSET -3.168106 0.246593 1.00103
                    CHANNELS 3 Zrotation Yrotation Xrotation
                    JOINT RightHandMiddle2
                    {
                      OFFSET -6.180828 -0.258836 -1.000895
                      CHANNELS 3 Zrotation Yrotation Xrotation
                      JOINT RightHandMiddle3
                      {
                        OFFSET -4.348901 0.0 -0.0
                        CHANNELS 3 Zrotation Yrotation Xrotation
                        JOINT RightHandMiddle4
                        {
                          OFFSET -3.00024 -4e-06 -2e-06
                          CHANNELS 3 Zrotation Yrotation Xrotation
                          JOINT RightHandMiddleEnd
                          {
                            OFFSET -2.30252 -0.29437 -0.031706
                            CHANNELS 3 Zrotation Yrotation Xrotation
                          }
                        }
                      }
                    }
                  }
                  JOINT RightHandRing1
                  {
                    OFFSET -2.88569 -0.067952 -0.308858
                    CHANNELS 3 Zrotation Yrotation Xrotation
                    JOINT RightHandRing2
                    {
                      OFFSET -5.854198 -0.48613 -1.373731
                      CHANNELS 3 Zrotation Yrotation Xrotation
                      JOINT RightHandRing3
                      {
                        OFFSET -4.33881 -4e-06 -0.0
                        CHANNELS 3 Zrotation Yrotation Xrotation
                        JOINT RightHandRing4
                        {
                          OFFSET -2.654903 -4e-06 4e-06
                          CHANNELS 3 Zrotation Yrotation Xrotation
                          JOINT RightHandRingEnd
                          {
                            OFFSET -1.933568 0.077527 -5.2e-05
                            CHANNELS 3 Zrotation Yrotation Xrotation
                          }
                        }
                      }
                    }
                  }
                  JOINT RightHandPinky1
                  {
                    OFFSET -2.866425 -0.342796 -1.584145
                    CHANNELS 3 Zrotation Yrotation Xrotation
                    JOINT RightHandPinky2
                    {
                      OFFSET -5.091371 -1.332055 -1.772385
                      CHANNELS 3 Zrotation Yrotation Xrotation
                      JOINT RightHandPinky3
                      {
                        OFFSET -3.062664 -4e-06 1e-06
                        CHANNELS 3 Zrotation Yrotation Xrotation
                        JOINT RightHandPinky4
                        {
                          OFFSET -1.546529 4e-06 -2e-06
                          CHANNELS 3 Zrotation Yrotation Xrotation
                          JOINT RightHandPinkyEnd
                          {
                            OFFSET -1.945119 -0.157718 0.057211
                            CHANNELS 3 Zrotation Yrotation Xrotation
                          }
                        }
                      }
                    }
                  }
                }
              }
            }
          }
        }
      }
    }
    JOINT LeftLeg
    {
      OFFSET 10.043214 -8.434526 2.595655
      CHANNELS 3 Zrotation Yrotation Xrotation
      JOINT LeftShin
      {
        OFFSET -1e-06 -43.221752 -0.802913
        CHANNELS 3 Zrotation Yrotation Xrotation
        JOINT LeftFoot
        {
          OFFSET 1e-06 -42.155094 -3.481523
          CHANNELS 3 Zrotation Yrotation Xrotation
          JOINT LeftToeBase
          {
            OFFSET 0.0 -5.059472 13.231529
            CHANNELS 3 Zrotation Yrotation Xrotation
            JOINT LeftToeEnd
            {
              OFFSET -0.009607 -1.647619 6.513017
              CHANNELS 3 Zrotation Yrotation Xrotation
            }
          }
        }
      }
    }
    JOINT RightLeg
    {
      OFFSET -10.047278 -8.29526 2.620317
      CHANNELS 3 Zrotation Yrotation Xrotation
      JOINT RightShin
      {
        OFFSET 1e-06 -43.362206 -0.805556
        CHANNELS 3 Zrotation Yrotation Xrotation
        JOINT RightFoot
        {
          OFFSET 2e-06 -42.117393 -3.478398
          CHANNELS 3 Zrotation Yrotation Xrotation
          JOINT RightToeBase
          {
            OFFSET -0.0 -5.079609 13.284196
            CHANNELS 3 Zrotation Yrotation Xrotation
            JOINT RightToeEnd
            {
              OFFSET 0.009532 -1.634378 6.460591
              CHANNELS 3 Zrotation Yrotation Xrotation
            }
          }
        }
      }
    }
  }
}
MOTION
Frames: 4
Frame Time: 0.03333333333333333
0.0 0.0 0.0 0.0 -0.0 0.0 -2.245678 32.872055 -12.93584 -1.451353 7.614872 -4.580783 -0.313222 0.794869 12.094862 -0.550366 -0.469731 -0.595409 1.736323 -2.131862 9.426662 2.221243 1.409921 5.21999 0.288779 2.309607 -3.57109 0.646537 2.245594 -22.113335 7.7e-05 -2.2e-05 6e-06 -0.002293 0.00677 0.044183 0.659208 -3.744748 -10.600918 -0.673607 3.780835 -10.581241 5.476448 -12.288294 10.079309 -72.332016 -9.958299 0.834756 -1.541811 -30.526711 0.3762 14.213041 1.989769 -4.383113 -5.882111 9.861296 0.702592 -10.93688 -0.360573 7.156211 -0.0 8.774834 -0.0 -15.788174 17.9247 6.283234 -1.844034 2.498506 -2.50728 -10.16361 4.678951 4.621113 -20.976044 -2e-06 2e-06 -21.226307 2.451701 -3.594005 0.0 -6e-06 -1e-06 -1.362682 2.2408 -0.746324 -21.33493 0.584912 3.008324 -13.821225 -1e-06 0.0 -23.887192 -0.249077 -0.839486 -60.301357 2.615542 -1.241228 -0.294025 1.679689 0.833257 -14.218223 0.093218 1.300581 -34.212078 -0.287562 0.967167 -20.033232 0.964538 1.212842 1e-06 1e-06 -0.0 -3.440392 0.788234 0.501656 -15.928201 -3.16731 2.999709 -6.338831 -0.0 0.0 -18.123463 3.648189 -4.905675 -4e-06 -0.0 -1e-06 10.13894 13.554333 15.268652 60.750477 16.845457 1.731811 0.842153 29.791746 0.243074 -17.904434 -11.872633 7.135249 2.243542 -5.255038 -3.180158 14.282896 -0.826597 6.952503 -2e-06 -12.690609 0.0 16.892632 -17.436695 2.26864 1.665667 -1.955922 -2.878297 4.727801 -4.170588 4.993922 11.020531 3e-06 -1e-06 12.109056 -3.735718 -2.866783 -0.0 -0.0 -0.0 1.291985 -1.92855 -1.498088 14.800132 0.567467 3.865608 14.242576 -1.341737 -6.66066 19.631973 0.143925 -0.648245 50.517914 -0.161865 -6.118417 0.353028 -1.511151 -0.031938 20.222797 3.684309 2.31663 18.787279 3e-06 -2e-06 10.751632 -0.479869 1.397905 0.0 0.0 0.0 3.273808 0.305946 -0.58011 21.486816 11.830377 2.266132 8.16293 0.0 -2e-06 18.399088 -3.798988 -4.94058 2e-06 -0.0 -1e-06 20.733688 15.860699 -18.095179 0.051946 -0.21344 153.821487 7.183318 -8.506621 9.602992 2.512852 -1.891689 -3.069096 1e-06 -0.0 1e-06 -15.376397 -7.558667 -12.95206 -0.227409 0.042047 153.570862 -1.215948 6.081324 -6.845253 -1.921297 0.677029 -6.007764 -0.0 -0.0 -2e-06 
0.0 0.0 0.0 0.0 -0.0 0.0 -2.174256 32.859734 -12.898031 -1.467401 7.703346 -4.589621 -0.307672 0.78981 12.07609 -0.546894 -0.479917 -0.610772 1.709896 -2.117284 9.393236 2.192252 1.408395 5.235274 0.29183 2.323653 -3.580409 0.674685 2.240934 -22.143816 7.7e-05 -2.2e-05 6e-06 -0.000379 0.009962 0.039511 0.658273 -3.743071 -10.60672 -0.668666 3.785383 -10.587417 5.429986 -12.279059 10.123265 -72.328743 -9.99529 0.76912 -1.481143 -30.37228 0.363659 14.148579 1.968844 -4.330093 -5.882111 9.86129 0.702591 -10.936878 -0.360573 7.156209 0.0 8.77483 -1e-06 -15.786223 17.91781 6.256692 -1.844033 2.498507 -2.507279 -10.163607 4.678948 4.621112 -20.976038 -2e-06 2e-06 -21.226301 2.451699 -3.594002 0.0 -6e-06 -1e-06 -1.362682 2.240799 -0.746323 -21.334929 0.584912 3.008325 -13.821223 -2e-06 2e-06 -23.887184 -0.249077 -0.839484 -60.275116 2.613043 -1.25581 -0.294024 1.679687 0.833257 -14.218217 0.093217 1.300581 -34.212067 -0.287561 0.967169 -20.033222 0.964538 1.212842 1e-06 0.0 0.0 -3.44039 0.788234 0.501656 -15.928196 -3.16731 2.999709 -6.33883 -1e-06 -0.0 -18.123459 3.648185 -4.905674 -3e-06 -0.0 -1e-06 10.158581 13.552968 15.324155 60.798145 16.912312 1.724193 0.870449 29.783617 0.262476 -17.873068 -11.813936 7.049363 2.243543 -5.255037 -3.180156 14.282895 -0.826598 6.9525 -0.0 -12.690607 2e-06 16.891985 -17.424423 2.265076 1.665666 -1.955921 -2.878298 4.7278 -4.170588 4.993924 11.020528 2e-06 1e-06 12.109054 -3.735717 -2.866785 -0.0 -0.0 -0.0 1.291986 -1.928549 -1.498088 14.800129 0.567465 3.865605 14.242574 -1.341739 -6.660653 19.631969 0.143923 -0.648246 50.524223 -0.170383 -6.138556 0.353028 -1.511151 -0.03194 20.222794 3.684307 2.316627 18.787273 3e-06 -2e-06 10.751629 -0.479869 1.397903 0.0 -0.0 1e-06 3.273807 0.305946 -0.580109 21.486813 11.830374 2.266129 8.162928 1e-06 -4e-06 18.399086 -3.798987 -4.940577 3e-06 -0.0 -1e-06 20.655714 15.836337 -17.93811 0.07945 -0.205096 153.79509 7.139922 -8.541876 9.608928 2.507061 -1.897142 -3.085765 0.0 0.0 0.0 -15.513033 -7.490428 -12.818202 -0.206802 0.056494 153.502823 -1.193569 6.36232 -6.852682 -1.918934 0.677586 -6.012078 0.0 -0.0 -2e-06 
0.0 0.0 0.0 0.0 -0.0 0.0 -2.099171 32.852711 -12.873983 -1.477527 7.775241 -4.618356 -0.303311 0.790547 12.065082 -0.548529 -0.489993 -0.623372 1.681366 -2.102764 9.37149 2.174479 1.419264 5.24305 0.288925 2.319018 -3.587212 0.69606 2.254475 -22.162811 7.7e-05 -2.2e-05 6e-06 0.000945 0.012781 0.034945 0.655616 -3.742416 -10.617065 -0.663157 3.789982 -10.596591 5.353063 -12.266586 10.209981 -72.287315 -10.093884 0.627437 -1.46294 -30.257864 0.368347 14.118761 1.982657 -4.284408 -5.882109 9.861292 0.702592 -10.936878 -0.360574 7.156209 -0.0 8.774832 -0.0 -15.750654 17.890751 6.229577 -1.844033 2.498505 -2.507278 -10.163608 4.678949 4.621111 -20.976038 -3e-06 3e-06 -21.226301 2.4517 -3.594002 0.0 -6e-06 -1e-06 -1.362682 2.2408 -0.746323 -21.334929 0.584911 3.008324 -13.821221 -2e-06 2e-06 -23.887184 -0.249079 -0.839484 -60.201077 2.598519 -1.245982 -0.294024 1.67969 0.833257 -14.218217 0.093215 1.300582 -34.21207 -0.287563 0.96717 -20.033222 0.964537 1.212842 1e-06 1e-06 -0.0 -3.440391 0.788235 0.501656 -15.928196 -3.167311 2.999708 -6.33883 -0.0 1e-06 -18.123459 3.648187 -4.905673 -4e-06 0.0 -2e-06 10.179819 13.549854 15.365651 60.867088 16.948814 1.736518 0.841371 29.792028 0.26192 -17.78418 -11.793033 6.94279 2.243543 -5.255038 -3.180159 14.282898 -0.826597 6.9525 -2e-06 -12.690613 2e-06 16.893761 -17.416489 2.267244 1.665667 -1.955921 -2.878299 4.727802 -4.170592 4.993926 11.020532 3e-06 -1e-06 12.109058 -3.735719 -2.866784 -0.0 0.0 1e-06 1.291986 -1.92855 -1.498088 14.800136 0.567467 3.865608 14.24258 -1.341738 -6.660659 19.631981 0.143925 -0.648246 50.534325 -0.179414 -6.158518 0.353029 -1.511152 -0.031938 20.222801 3.684311 2.316628 18.787283 3e-06 -3e-06 10.751633 -0.479869 1.397905 0.0 -0.0 1e-06 3.273808 0.305947 -0.580111 21.486822 11.830382 2.266129 8.16293 1e-06 -2e-06 18.399096 -3.798988 -4.940582 3e-06 -0.0 0.0 20.57346 15.894897 -17.781698 0.096584 -0.208662 153.76915 7.177591 -8.46034 9.637558 2.506615 -1.900833 -3.045431 0.0 0.0 3e-06 -15.657533 -7.38184 -12.715835 -0.192235 0.072495 153.445404 -1.146114 6.669346 -6.832864 -1.912174 0.679135 -5.993295 0.0 -0.0 -2e-06 
0.0 0.0 0.0 0.0 -0.0 0.0 -2.032589 32.832085 -12.865593 -1.489143 7.815622 -4.658193 -0.297826 0.805588 12.050657 -0.55715 -0.497807 -0.629793 1.663346 -2.087296 9.366399 2.155613 1.426305 5.241517 0.284168 2.3395 -3.589074 0.706764 2.287376 -22.173786 7.7e-05 -2.2e-05 6e-06 0.001016 0.011322 0.032266 0.652336 -3.746125 -10.625884 -0.65956 3.790189 -10.603085 5.258113 -12.264704 10.308453 -72.225922 -10.21903 0.435364 -1.475849 -30.176228 0.382931 14.113955 2.025047 -4.264698 -5.882111 9.861288 0.70259 -10.936878 -0.360575 7.156211 1e-06 8.774828 -1e-06 -15.697979 17.881037 6.220144 -1.844035 2.498506 -2.50728 -10.163607 4.678946 4.621113 -20.97604 -4e-06 2e-06 -21.226301 2.451696 -3.594002 0.0 -6e-06 -1e-06 -1.362682 2.240799 -0.746324 -21.334929 0.58491 3.008326 -13.821222 -2e-06 2e-06 -23.887186 -0.249079 -0.839485 -60.121738 2.595509 -1.236505 -0.294025 1.679686 0.833257 -14.218217 0.093215 1.300581 -34.21207 -0.287564 0.967171 -20.033226 0.964537 1.212844 1e-06 1e-06 -0.0 -3.440392 0.788233 0.501656 -15.928198 -3.16731 2.99971 -6.33883 -2e-06 1e-06 -18.123459 3.648183 -4.905674 -3e-06 0.0 -1e-06 10.211585 13.534075 15.374995 60.930904 16.968441 1.805377 0.758162 29.780592 0.237594 -17.637032 -11.822651 6.770363 2.243544 -5.255041 -3.180161 14.282903 -0.826595 6.952508 -4e-06 -12.690614 2e-06 16.897797 -17.433809 2.27906 1.665667 -1.955922 -2.878301 4.727803 -4.17059 4.993929 11.020535 4e-06 -0.0 12.10906 -3.735716 -2.866787 -0.0 -0.0 -0.0 1.291987 -1.928551 -1.49809 14.800139 0.567469 3.865608 14.242584 -1.341735 -6.660665 19.631985 0.143927 -0.648243 50.56041 -0.1915 -6.175579 0.353029 -1.511152 -0.031939 20.222805 3.684313 2.316633 18.787289 5e-06 -0.0 10.751637 -0.479869 1.397907 0.0 -0.0 0.0 3.273809 0.305947 -0.58011 21.486832 11.830384 2.266133 8.162933 2e-06 -1e-06 18.399096 -3.798987 -4.940576 3e-06 -0.0 -1e-06 20.520594 15.995688 -17.603252 0.102219 -0.220265 153.764908 7.245411 -8.301644 9.657098 2.512583 -1.905496 -2.979201 0.0 0.0 3e-06 -15.798836 -7.229424 -12.615461 -0.1905 0.08251 153.421005 -1.072109 6.969975 -6.826859 -1.901496 0.684627 -6.002429 0.0 -0.0 -2e-06 
